<svg width="28" height="28" viewBox="0 0 28 28" fill="none" xmlns="http://www.w3.org/2000/svg">
<path d="M28 28H26V23C25.9984 21.6744 25.4711 20.4036 24.5338 19.4662C23.5964 18.5289 22.3256 18.0016 21 18V16C22.8559 16.0021 24.6351 16.7403 25.9474 18.0526C27.2597 19.3649 27.9979 21.1441 28 23V28ZM20 28H18V23C17.9984 21.6744 17.4711 20.4036 16.5338 19.4662C15.5964 18.5289 14.3256 18.0016 13 18H7C5.6744 18.0016 4.40356 18.5289 3.46622 19.4662C2.52888 20.4036 2.00159 21.6744 2 23V28H0V23C0.00211736 21.1441 0.740295 19.3649 2.05259 18.0526C3.36489 16.7403 5.14413 16.0021 7 16H13C14.8559 16.0021 16.6351 16.7403 17.9474 18.0526C19.2597 19.3649 19.9979 21.1441 20 23V28ZM18 0V2C19.3261 2 20.5979 2.52678 21.5355 3.46447C22.4732 4.40215 23 5.67392 23 7C23 8.32608 22.4732 9.59785 21.5355 10.5355C20.5979 11.4732 19.3261 12 18 12V14C19.8565 14 21.637 13.2625 22.9497 11.9497C24.2625 10.637 25 8.85652 25 7C25 5.14348 24.2625 3.36301 22.9497 2.05025C21.637 0.737498 19.8565 0 18 0V0ZM10 2C10.9889 2 11.9556 2.29324 12.7779 2.84265C13.6001 3.39206 14.241 4.17295 14.6194 5.08658C14.9978 6.00021 15.0969 7.00555 14.9039 7.97545C14.711 8.94536 14.2348 9.83627 13.5355 10.5355C12.8363 11.2348 11.9454 11.711 10.9755 11.9039C10.0055 12.0969 9.00021 11.9978 8.08658 11.6194C7.17295 11.241 6.39206 10.6001 5.84265 9.77785C5.29324 8.95561 5 7.98891 5 7C5 5.67392 5.52678 4.40215 6.46447 3.46447C7.40215 2.52678 8.67392 2 10 2V2ZM10 0C8.61553 0 7.26215 0.410543 6.11101 1.17971C4.95986 1.94888 4.06266 3.04213 3.53284 4.32122C3.00303 5.6003 2.86441 7.00777 3.1345 8.36563C3.4046 9.7235 4.07128 10.9708 5.05025 11.9497C6.02922 12.9287 7.2765 13.5954 8.63437 13.8655C9.99223 14.1356 11.3997 13.997 12.6788 13.4672C13.9579 12.9373 15.0511 12.0401 15.8203 10.889C16.5895 9.73785 17 8.38447 17 7C17 5.14348 16.2625 3.36301 14.9497 2.05025C13.637 0.737498 11.8565 0 10 0V0Z" fill="black"/>
</svg>
